<svg width="793" height="552" viewBox="0 0 793 552" fill="none" xmlns="http://www.w3.org/2000/svg">
<g clip-path="url(#clip0)">
<path d="M158 551.732C245.261 551.732 316 546.359 316 539.732C316 533.104 245.261 527.732 158 527.732C70.739 527.732 0 533.104 0 539.732C0 546.359 70.739 551.732 158 551.732Z" fill="#E6E6E6"/>
<path d="M774.209 476.963H213.791C208.807 476.963 204.028 474.983 200.504 471.459C196.98 467.935 195 463.156 195 458.172C398.151 434.562 597.485 434.562 793 458.172C793 463.156 791.02 467.935 787.496 471.459C783.972 474.983 779.193 476.963 774.209 476.963Z" fill="#2F2E41"/>
<path d="M793 459.277L195 458.172L264.306 341.556L264.638 341.004V83.9964C264.637 80.8768 265.252 77.7878 266.445 74.9057C267.639 72.0236 269.389 69.4049 271.595 67.199C273.8 64.9932 276.419 63.2435 279.301 62.0498C282.183 60.8561 285.272 60.2419 288.392 60.2422H696.292C699.412 60.2419 702.501 60.8561 705.383 62.0498C708.265 63.2435 710.883 64.9932 713.089 67.199C715.295 69.4049 717.045 72.0236 718.239 74.9057C719.432 77.7878 720.046 80.8768 720.046 83.9964V342.772L793 459.277Z" fill="#3F3D56"/>
<path d="M287.85 76.8225C285.799 76.8248 283.832 77.6408 282.382 79.0914C280.931 80.5419 280.115 82.5086 280.113 84.5601V318.896C280.115 320.948 280.931 322.915 282.382 324.365C283.832 325.816 285.799 326.632 287.85 326.634H700.15C702.201 326.632 704.168 325.816 705.618 324.365C707.069 322.914 707.885 320.948 707.887 318.896V84.5601C707.885 82.5087 707.069 80.542 705.618 79.0915C704.168 77.6409 702.201 76.8249 700.15 76.8225H287.85Z" fill="white"/>
<path d="M289.578 357.584C288.944 357.585 288.324 357.767 287.79 358.109C287.256 358.451 286.831 358.939 286.565 359.514L265.21 405.939C264.977 406.445 264.876 407 264.914 407.555C264.953 408.11 265.13 408.646 265.43 409.114C265.73 409.582 266.143 409.968 266.631 410.235C267.119 410.501 267.666 410.641 268.222 410.641H717.314C717.879 410.641 718.435 410.497 718.929 410.222C719.423 409.946 719.838 409.549 720.135 409.069C720.432 408.588 720.601 408.039 720.626 407.474C720.652 406.909 720.532 406.348 720.279 405.842L697.067 359.417C696.793 358.865 696.37 358.401 695.846 358.077C695.322 357.753 694.718 357.582 694.102 357.584H289.578Z" fill="#2F2E41"/>
<path d="M492.342 72.9538C495.089 72.9538 497.316 70.7268 497.316 67.9797C497.316 65.2325 495.089 63.0056 492.342 63.0056C489.595 63.0056 487.368 65.2325 487.368 67.9797C487.368 70.7268 489.595 72.9538 492.342 72.9538Z" fill="white"/>
<path d="M448.2 419.484C447.471 419.485 446.763 419.726 446.184 420.169C445.605 420.613 445.189 421.234 444.998 421.938L439.641 441.834C439.509 442.326 439.491 442.841 439.59 443.341C439.689 443.84 439.901 444.31 440.211 444.714C440.521 445.118 440.919 445.445 441.375 445.671C441.832 445.896 442.334 446.013 442.843 446.013H544.717C545.246 446.013 545.767 445.887 546.237 445.644C546.706 445.402 547.112 445.051 547.418 444.62C547.725 444.189 547.924 443.692 547.999 443.168C548.074 442.645 548.023 442.112 547.85 441.612L540.963 421.715C540.737 421.064 540.314 420.499 539.752 420.099C539.191 419.7 538.519 419.485 537.829 419.484H448.2Z" fill="#2F2E41"/>
<path d="M720.046 337.135V341.556H264.306L264.649 341.004V337.135H720.046Z" fill="#2F2E41"/>
<path d="M707.335 154.75C750.068 154.75 784.71 120.108 784.71 77.3752C784.71 34.6421 750.068 0 707.335 0C664.601 0 629.959 34.6421 629.959 77.3752C629.959 120.108 664.601 154.75 707.335 154.75Z" fill="#6C63FF"/>
<path d="M739.39 111.089H675.279C674.107 111.088 672.983 110.621 672.154 109.792C671.325 108.964 670.859 107.84 670.858 106.667V67.9797C670.859 66.8074 671.325 65.6835 672.154 64.8546C672.983 64.0257 674.107 63.5595 675.279 63.5582H739.39C740.562 63.5595 741.686 64.0257 742.515 64.8546C743.344 65.6835 743.81 66.8074 743.811 67.9797V106.667C743.81 107.84 743.344 108.964 742.515 109.792C741.686 110.621 740.562 111.088 739.39 111.089ZM675.279 67.9797V106.667H739.393L739.39 67.9797L675.279 67.9797Z" fill="white"/>
<path d="M727.231 67.9797H687.438V50.2939C687.438 37.484 695.806 28.1867 707.335 28.1867C718.863 28.1867 727.231 37.484 727.231 50.2939L727.231 67.9797ZM691.859 63.5582H722.81V50.2939C722.81 39.8809 716.446 32.6081 707.335 32.6081C698.223 32.6081 691.86 39.8809 691.86 50.2939L691.859 63.5582Z" fill="white"/>
<path d="M707.335 90.6395C709.776 90.6395 711.756 88.66 711.756 86.2181C711.756 83.7762 709.776 81.7967 707.335 81.7967C704.893 81.7967 702.913 83.7762 702.913 86.2181C702.913 88.66 704.893 90.6395 707.335 90.6395Z" fill="white"/>
<path d="M653.32 247.149H334.68C333.116 247.148 331.616 246.525 330.51 245.419C329.403 244.313 328.781 242.813 328.779 241.249V162.208C328.781 160.643 329.403 159.144 330.51 158.037C331.616 156.931 333.116 156.309 334.68 156.307H653.32C654.884 156.309 656.384 156.931 657.49 158.037C658.597 159.144 659.219 160.643 659.221 162.208V241.249C659.219 242.813 658.597 244.313 657.49 245.419C656.384 246.525 654.884 247.148 653.32 247.149V247.149ZM334.68 158.667C333.741 158.668 332.841 159.042 332.178 159.705C331.514 160.369 331.141 161.269 331.14 162.208V241.249C331.141 242.187 331.514 243.087 332.178 243.751C332.841 244.415 333.741 244.788 334.68 244.789H653.32C654.259 244.788 655.159 244.415 655.822 243.751C656.486 243.087 656.859 242.187 656.86 241.249V162.208C656.859 161.269 656.486 160.369 655.822 159.705C655.159 159.042 654.259 158.668 653.32 158.667L334.68 158.667Z" fill="#E6E6E6"/>
<path d="M384.19 222.732C397.465 222.732 408.227 211.97 408.227 198.695C408.227 185.421 397.465 174.659 384.19 174.659C370.915 174.659 360.154 185.421 360.154 198.695C360.154 211.97 370.915 222.732 384.19 222.732Z" fill="#E6E6E6"/>
<path d="M439.703 182.671C439.176 182.67 438.655 182.773 438.168 182.974C437.681 183.175 437.239 183.47 436.866 183.842C436.494 184.214 436.198 184.656 435.996 185.143C435.794 185.629 435.691 186.151 435.691 186.677C435.691 187.204 435.794 187.725 435.996 188.212C436.198 188.698 436.494 189.14 436.866 189.512C437.239 189.884 437.681 190.179 438.168 190.38C438.655 190.581 439.176 190.684 439.703 190.683H628.561C629.623 190.683 630.642 190.261 631.393 189.51C632.145 188.759 632.567 187.74 632.567 186.677C632.567 185.615 632.145 184.596 631.393 183.845C630.642 183.093 629.623 182.671 628.561 182.671H439.703Z" fill="#E6E6E6"/>
<path d="M439.703 206.708C438.641 206.708 437.622 207.13 436.87 207.881C436.119 208.632 435.697 209.651 435.697 210.714C435.697 211.776 436.119 212.795 436.87 213.546C437.622 214.298 438.641 214.72 439.703 214.72H520.969C522.031 214.72 523.05 214.298 523.802 213.546C524.553 212.795 524.975 211.776 524.975 210.714C524.975 209.651 524.553 208.632 523.802 207.881C523.05 207.13 522.031 206.708 520.969 206.708H439.703Z" fill="#E6E6E6"/>
</g>
<defs>
<clipPath id="clip0">
<rect width="793" height="551.732" fill="white"/>
</clipPath>
</defs>
</svg>
